{"title":"Jeremih - Down On Me ft. 50 Cent New","uid":6089635,"size":28986836,"categoryP":"video","categoryS":"music_videos","magnet":"?xt=urn:btih:392eab855a3917b33ae1577b809fa511835a0561&amp;dn=Jeremih+-+Down+On+Me+ft.+50+Cent+New&amp;tr=udp%3A%2F%2Ftracker.openbittorrent.com%3A80&amp;tr=udp%3A%2F%2Fopen.demonii.com%3A1337&amp;tr=udp%3A%2F%2Ftracker.coppersurfer.tk%3A6969&amp;tr=udp%3A%2F%2Fexodus.desync.com%3A6969","seeders":1,"leechers":0,"uploader":"kamikaz28","files":2,"time":1294492746,"description":"Jeremih - Down On Me ft. 50 Cent\n\npect ratio             : 16:9\nFrame rate                       : 25.000 fps\nColor space                      : YUV\nChroma subsampling               : 4:2:0\nBit depth                        : 8 bits\nScan type                        : Progressive\nCompression mode                 : Lossy\nBits/(Pixel*Frame)               : 0.171\nStream size                      : 22.9 MiB (83%)\nWriting library                  : Lavc51.28.0\n\nAudio\nID                               : 1\nFormat                           : MPEG Audio\nFormat version                   : Version 1\nFormat profile                   : Layer 3\nMode                             : Joint stereo\nMode extension                   : MS Stereo\nCodec ID                         : 55\nCodec ID/Hint                    : MP3\nDuration                         : 3mn 52s\nBit rate mode                    : Constant\nBit rate                         : 160 Kbps\nChannel(s)                       : 2 channels\nSampling rate                    : 44.1 KHz\nCompression mode                 : Lossy\nStream size                      : 4.43 MiB (16%)\nAlignment                        : Aligned on interleaves\nInterleave, duration             : 26 ms (0.65 video frame)\nInterleave, preload duration     : 522 ms\nWriting library                  : LAME3.96\n\n","torrent":{"xt":"urn:btih:392eab855a3917b33ae1577b809fa511835a0561","amp;dn":"Jeremih+-+Down+On+Me+ft.+50+Cent+New","amp;tr":["udp%3A%2F%2Ftracker.openbittorrent.com%3A80","udp%3A%2F%2Fopen.demonii.com%3A1337","udp%3A%2F%2Ftracker.coppersurfer.tk%3A6969","udp%3A%2F%2Fexodus.desync.com%3A6969"],"infoHash":"392eab855a3917b33ae1577b809fa511835a0561","infoHashBuffer":{"type":"Buffer","data":[57,46,171,133,90,57,23,179,58,225,87,123,128,159,165,17,131,90,5,97]},"announce":[],"urlList":[]}}